# xmcd
#
# Track frame offsets:
#   150
#   53107
#   68682
#   123494
#
# Disc length: 1892 seconds
#
# Revision: 0
# Processed by: cddbd v1.5PL3 Copyright (c) Steve Scherf et al.
# Submitted via: Media_Universe 3.0
#
DISCID=31076204
DTITLE=EMILE  VOLEL - POT POURRI
DYEAR=1900
DGENRE=Dance
TTITLE0=POT POURRI ESPAGNOL
TTITLE1=PLAZOS TRAICIONEROS
TTITLE2=POT POURRI FRANCAIS
TTITLE3=MA BRUNE 
EXTD=
EXTT0=
EXTT1=
EXTT2=
EXTT3=
PLAYORDER=
